<?xml version="1.0" standalone="no"?>
<!DOCTYPE svg PUBLIC "-//W3C//DTD SVG 20010904//EN"
 "http://www.w3.org/TR/2001/REC-SVG-20010904/DTD/svg10.dtd">
<svg version="1.0" xmlns="http://www.w3.org/2000/svg"
 width="320.000000pt" height="320.000000pt" viewBox="0 0 320.000000 320.000000"
 preserveAspectRatio="xMidYMid meet">
<metadata>
Created by potrace 1.11, written by Peter Selinger 2001-2013
</metadata>
<g transform="translate(0.000000,320.000000) scale(0.100000,-0.100000)"
fill="#000000" stroke="none">
<path d="M1480 3153 c0 -8 -14 -11 -40 -10 -22 2 -40 0 -40 -3 0 -3 -10 -7
-22 -8 -68 -6 -95 -10 -110 -17 -10 -4 -29 -8 -43 -9 -14 0 -25 -4 -25 -8 0
-5 -5 -8 -11 -8 -5 0 -31 -9 -56 -21 -25 -11 -53 -21 -63 -22 -10 -1 -16 -5
-14 -9 3 -4 0 -8 -6 -8 -6 0 -39 -19 -73 -42 -34 -24 -66 -41 -70 -40 -5 1 -6
-2 -2 -7 6 -10 -34 -37 -48 -33 -5 1 -6 -2 -3 -6 6 -10 -67 -92 -82 -92 -32 0
-273 -246 -348 -356 -116 -168 -202 -375 -230 -548 -3 -21 -8 -48 -11 -60 -2
-11 -6 -84 -8 -161 -4 -190 18 -337 77 -511 13 -39 18 -69 13 -80 -4 -11 -10
-28 -12 -39 -2 -11 -8 -21 -13 -23 -6 -2 -7 -15 -4 -28 4 -13 2 -24 -4 -24 -6
0 -8 -9 -5 -20 3 -13 0 -20 -8 -20 -11 0 -11 -2 1 -10 9 -6 10 -10 3 -10 -7 0
-10 -9 -8 -22 3 -12 -3 -31 -13 -42 -16 -20 -16 -20 1 -7 14 11 17 11 17 -1 0
-8 -6 -20 -13 -27 -6 -8 -7 -11 -1 -8 7 4 11 -4 12 -21 0 -15 3 -42 7 -60 4
-24 2 -31 -6 -27 -6 4 -4 -3 4 -16 9 -13 18 -39 20 -57 3 -18 11 -40 18 -49 7
-8 14 -21 15 -29 2 -11 -2 -11 -19 -2 -19 10 -20 9 -10 -4 7 -8 10 -17 8 -20
-3 -3 6 -3 20 -1 14 3 25 1 25 -6 0 -5 -8 -8 -18 -5 -9 2 -7 -1 6 -7 12 -7 22
-18 22 -26 0 -7 5 -13 11 -13 5 0 8 -4 4 -10 -3 -5 -13 -6 -23 -3 -16 6 -16 6
1 -11 9 -10 15 -22 11 -27 -3 -5 0 -8 7 -7 7 2 13 -4 14 -12 0 -8 3 -16 8 -17
16 -6 27 -2 27 8 0 8 -5 8 -15 -1 -17 -14 -21 0 -4 17 8 8 18 5 35 -10 23 -20
35 -55 14 -42 -6 4 -8 10 -5 15 3 5 0 12 -6 16 -8 4 -9 3 -5 -4 4 -7 2 -12 -3
-12 -6 0 -11 -5 -11 -12 0 -6 3 -8 7 -5 3 4 12 2 19 -4 8 -7 14 -7 19 1 4 6
22 -3 48 -25 22 -19 45 -35 49 -35 5 0 6 -5 2 -11 -4 -7 -1 -10 7 -7 20 7 49
-10 49 -28 0 -8 -4 -12 -10 -9 -5 3 -10 1 -10 -5 0 -6 8 -10 18 -8 13 2 16 -3
15 -22 -2 -22 -1 -23 8 -7 5 9 8 21 5 26 -10 15 19 20 37 6 19 -14 22 -32 6
-37 -6 -2 7 -3 29 -3 31 0 38 3 34 15 -5 11 -2 11 12 -3 10 -9 22 -15 27 -12
9 6 13 -8 10 -32 -2 -16 15 -17 25 -1 5 7 11 5 21 -7 7 -11 13 -13 13 -7 0 7
9 12 21 12 11 0 18 4 15 8 -3 5 1 9 9 9 8 0 12 -4 9 -9 -3 -4 2 -11 10 -14 9
-3 13 -11 9 -17 -3 -6 -1 -7 5 -3 7 4 12 1 12 -6 0 -9 3 -9 10 2 9 13 11 13
19 1 10 -16 45 -25 35 -9 -3 5 -8 7 -11 4 -3 -3 -14 5 -24 17 -12 14 -18 17
-19 8 0 -11 -3 -11 -15 -1 -8 7 -15 18 -15 24 0 6 5 4 10 -4 8 -12 12 -13 19
-2 7 11 9 11 14 -2 4 -9 11 -16 17 -16 6 0 9 3 7 8 -3 4 14 7 38 7 24 0 41 -3
38 -7 -2 -5 3 -8 12 -8 9 0 13 -5 10 -10 -4 -6 -12 -7 -18 -3 -6 4 -26 8 -43
9 -29 1 -30 0 -15 -15 14 -15 17 -15 23 -1 6 13 7 13 7 0 1 -13 2 -13 11 0 6
9 10 10 10 3 0 -6 9 -11 19 -10 11 0 18 4 15 8 -2 4 5 7 16 6 11 -1 20 -8 20
-17 0 -13 1 -13 10 0 8 13 14 8 12 -11 -1 -3 5 -6 13 -6 7 0 11 6 8 14 -3 7
-9 13 -15 13 -5 0 -7 4 -4 8 3 4 -5 8 -17 8 -12 -1 -23 4 -24 9 -2 6 9 10 25
10 19 0 30 -7 39 -25 6 -14 12 -19 12 -11 1 10 4 11 14 3 7 -6 19 -10 27 -8
33 5 60 18 60 28 0 7 -4 7 -13 1 -16 -13 -48 -13 -40 0 3 6 1 7 -5 3 -23 -14
-49 -14 -49 0 0 10 4 11 13 3 8 -7 13 -6 16 2 2 7 12 13 21 15 9 1 15 -2 11
-7 -3 -5 5 -9 16 -9 15 0 20 5 17 14 -4 10 4 13 34 11 22 -1 39 2 39 8 0 6 3
7 7 4 3 -4 13 -1 21 6 13 9 14 9 8 0 -10 -18 -17 -57 -8 -49 4 4 7 13 7 19 0
5 6 12 14 15 8 3 11 0 7 -7 -11 -17 0 -13 15 6 8 10 9 14 2 10 -6 -4 -15 -2
-19 4 -4 7 -3 9 3 6 6 -4 16 -1 22 7 6 7 22 11 36 8 15 -2 25 0 25 7 0 7 4 10
8 7 4 -2 14 -1 22 4 9 5 19 5 27 -2 10 -8 13 -7 14 3 0 8 4 5 9 -6 6 -13 9
-15 9 -5 1 12 14 15 59 15 64 0 221 19 297 36 139 32 320 108 441 185 42 27
68 37 92 36 19 -2 31 1 28 7 -3 5 1 11 9 14 8 4 12 1 9 -6 -3 -8 5 -13 20 -15
20 -1 24 2 20 16 -5 16 -5 16 6 0 6 -10 17 -18 25 -18 9 0 12 6 9 18 -5 16 -5
16 6 0 15 -24 41 -24 34 0 -5 16 -5 16 6 0 15 -24 41 -24 34 0 -5 16 -5 16 6
0 15 -24 41 -24 34 0 -5 16 -5 16 6 0 13 -21 66 -24 73 -5 4 9 6 9 6 0 1 -7 5
-13 11 -13 5 0 7 8 4 18 -5 15 -4 15 8 2 7 -8 24 -16 38 -18 24 -3 24 -2 6 13
-11 8 -15 15 -9 15 7 0 18 -7 27 -15 21 -22 57 -20 50 3 -5 15 -4 15 8 2 7 -8
25 -16 40 -16 l26 -1 1 138 2 138 -140 3 -140 3 48 70 c126 183 203 376 239
605 9 57 9 328 0 396 -10 74 -47 218 -75 294 -72 192 -178 355 -328 506 -147
148 -263 224 -515 338 -14 6 -27 14 -30 17 -3 3 -15 11 -28 18 -12 7 -20 17
-16 23 4 7 3 8 -4 4 -6 -4 -33 4 -60 18 -60 30 -168 63 -215 65 -12 1 -16 5
-11 14 5 8 2 8 -9 -2 -9 -7 -17 -9 -17 -4 0 5 -16 8 -36 7 -20 -2 -45 1 -56 7
-13 7 -18 7 -14 1 8 -13 -67 -10 -76 3 -5 6 -8 6 -8 -2z m1254 -2645 c-3 -4
-9 -8 -15 -8 -5 0 -9 4 -9 8 0 5 7 9 15 9 8 0 12 -4 9 -9z m-2385 -84 c3 -16
1 -17 -13 -5 -19 16 -21 34 -3 29 6 -3 14 -13 16 -24z m251 -178 c0 -3 -4 -8
-10 -11 -5 -3 -10 -1 -10 4 0 6 5 11 10 11 6 0 10 -2 10 -4z m85 -44 c-3 -3
-11 0 -18 7 -9 10 -8 11 6 5 10 -3 15 -9 12 -12z m118 -28 c4 -1 13 -2 20 -3
8 -1 7 -4 -3 -11 -9 -6 -18 -6 -24 0 -6 6 -14 6 -22 -1 -11 -9 -12 -2 -5 29 1
2 7 0 14 -5 6 -4 15 -8 20 -9z"/>
<path d="M185 760 c-3 -6 1 -7 9 -4 18 7 21 14 7 14 -6 0 -13 -4 -16 -10z"/>
<path d="M200 731 c0 -7 -5 -9 -12 -5 -7 5 -8 3 -3 -5 5 -9 10 -10 18 -2 6 6
8 14 4 18 -4 3 -7 1 -7 -6z"/>
<path d="M219 663 c-6 -32 -5 -53 1 -53 4 0 7 14 7 30 0 27 -5 41 -8 23z"/>
<path d="M226 583 c-6 -14 -5 -15 5 -6 7 7 10 15 7 18 -3 3 -9 -2 -12 -12z"/>
<path d="M250 500 c0 -5 5 -10 11 -10 5 0 7 5 4 10 -3 6 -8 10 -11 10 -2 0 -4
-4 -4 -10z"/>
<path d="M280 480 c0 -5 5 -10 10 -10 6 0 10 5 10 10 0 6 -4 10 -10 10 -5 0
-10 -4 -10 -10z"/>
<path d="M256 467 c3 -10 9 -15 12 -12 3 3 0 11 -7 18 -10 9 -11 8 -5 -6z"/>
<path d="M425 321 c0 -28 1 -29 12 -14 8 10 13 12 13 4 0 -20 27 -43 33 -28 4
8 6 7 7 -3 0 -8 12 -23 25 -33 20 -14 24 -15 19 -2 -5 11 -2 14 12 9 15 -5 16
-4 5 4 -8 6 -20 8 -27 5 -7 -2 -17 5 -24 16 -6 11 -14 20 -19 18 -4 -1 -19 11
-32 27 l-25 28 1 -31z"/>
<path d="M395 321 c-3 -5 -2 -12 3 -15 5 -3 9 1 9 9 0 17 -3 19 -12 6z"/>
<path d="M447 259 c7 -7 15 -10 18 -7 3 3 -2 9 -12 12 -14 6 -15 5 -6 -5z"/>
<path d="M610 221 c0 -5 7 -12 16 -15 14 -5 15 -4 4 9 -14 17 -20 19 -20 6z"/>
<path d="M1480 220 c-9 -6 -10 -10 -3 -10 6 0 15 5 18 10 8 12 4 12 -15 0z"/>
<path d="M1396 202 c-3 -6 -2 -13 4 -17 5 -3 10 -16 11 -28 1 -20 2 -20 8 3 4
14 13 24 19 23 7 -2 12 2 12 8 0 5 5 7 10 4 6 -4 7 -11 4 -17 -4 -7 -2 -8 5
-4 20 13 -7 38 -29 26 -11 -6 -21 -5 -27 1 -7 7 -13 7 -17 1z"/>
<path d="M1499 208 c-6 -21 -5 -37 2 -32 5 3 7 9 4 14 -3 4 1 11 7 13 10 4 10
6 1 6 -7 1 -13 0 -14 -1z"/>
<path d="M715 169 c-4 -5 -4 -13 -1 -16 3 -4 6 0 6 8 0 11 2 11 10 -1 6 -9 10
-10 10 -3 0 17 -17 25 -25 12z"/>
<path d="M624 162 c4 -3 14 -7 22 -8 9 -1 13 0 10 4 -4 3 -14 7 -22 8 -9 1
-13 0 -10 -4z"/>
<path d="M683 155 c0 -8 4 -12 9 -9 4 3 8 9 8 15 0 5 -4 9 -8 9 -5 0 -9 -7 -9
-15z"/>
<path d="M1250 162 c0 -5 7 -9 15 -9 8 0 12 4 9 9 -7 10 -24 10 -24 0z"/>
<path d="M1290 158 c0 -23 17 -31 24 -12 4 9 4 19 1 22 -3 3 -5 -1 -5 -9 0
-11 -2 -11 -10 1 -8 13 -10 13 -10 -2z"/>
<path d="M850 139 c0 -5 -4 -8 -9 -4 -5 3 -13 0 -17 -6 -5 -8 -3 -9 6 -4 10 6
12 3 7 -11 -7 -18 -6 -18 6 -2 8 10 17 15 21 11 4 -4 4 0 0 10 -7 19 -14 22
-14 6z"/>
<path d="M1355 141 c-3 -5 -2 -12 3 -15 5 -3 9 1 9 9 0 17 -3 19 -12 6z"/>
<path d="M781 124 c0 -11 3 -14 6 -6 3 7 2 16 -1 19 -3 4 -6 -2 -5 -13z"/>
<path d="M1256 123 c-6 -14 -5 -15 5 -6 7 7 10 15 7 18 -3 3 -9 -2 -12 -12z"/>
<path d="M715 120 c-3 -5 -1 -10 4 -10 6 0 11 5 11 10 0 6 -2 10 -4 10 -3 0
-8 -4 -11 -10z"/>
<path d="M860 106 c0 -2 9 -6 20 -9 11 -3 18 -1 14 4 -5 9 -34 13 -34 5z"/>
<path d="M1227 99 c7 -7 15 -10 18 -7 3 3 -2 9 -12 12 -14 6 -15 5 -6 -5z"/>
<path d="M970 80 c0 -5 5 -10 11 -10 5 0 7 5 4 10 -3 6 -8 10 -11 10 -2 0 -4
-4 -4 -10z"/>
<path d="M1065 80 c-3 -6 1 -7 9 -4 18 7 21 14 7 14 -6 0 -13 -4 -16 -10z"/>
</g>
</svg>
