<svg xmlns="http://www.w3.org/2000/svg" viewBox="0 0 25.9 29.24"><defs><style>.cls-1{fill:#f7f7f7;}</style></defs><title>file</title><g id="Layer_2" data-name="Layer 2"><g id="Layer_1-2" data-name="Layer 1"><g id="Layer_2-2" data-name="Layer 2"><g id="Capa_1" data-name="Capa 1"><path class="cls-1" d="M24.26,10.46h-.71V7a.51.51,0,0,0-.16-.37L17.78.19h0L17.66.1h0L17.54,0h-14A1.14,1.14,0,0,0,2.34,1.15v9.31h-.7A1.63,1.63,0,0,0,0,12.09v8.53a1.64,1.64,0,0,0,1.64,1.64h.7V28.1a1.15,1.15,0,0,0,1.15,1.14H22.41a1.15,1.15,0,0,0,1.15-1.15h0V22.24h.71A1.63,1.63,0,0,0,25.9,20.6h0V12.09a1.63,1.63,0,0,0-1.63-1.63ZM3.49,1.15H16.77V7a.56.56,0,0,0,.57.56h5.07v2.93H3.49Zm12.1,10.78v8.53H13.64V11.93Zm-9.46,1.6v-1.6h6.21V13l-4,5.8v.05h4.06v1.57H5.75v-1l4.07-5.85h0ZM22.41,27.78H3.49V22.26H22.41Zm.19-11.21a3.89,3.89,0,0,1-2.78.9,3.64,3.64,0,0,1-.66,0v3H17.21V12a16.41,16.41,0,0,1,2.62-.18,4.16,4.16,0,0,1,2.61.68,2.54,2.54,0,0,1,.92,2A2.71,2.71,0,0,1,22.6,16.57Z"/><path class="cls-1" d="M20,13.32a3.06,3.06,0,0,0-.8.08v2.52a2.81,2.81,0,0,0,.65.05c1,0,1.66-.51,1.66-1.39S20.92,13.32,20,13.32Z"/></g></g></g></g></svg>