<?xml version="1.0" encoding="utf-8"?>
<!-- Generator: Adobe Illustrator 22.0.0, SVG Export Plug-In . SVG Version: 6.00 Build 0)  -->
<svg version="1.1" id="Layer_1" xmlns="http://www.w3.org/2000/svg" xmlns:xlink="http://www.w3.org/1999/xlink" x="0px" y="0px"
	 viewBox="0 0 40 40" style="enable-background:new 0 0 40 40;" xml:space="preserve">
<style type="text/css">
	.st0{fill:#FFFFFF;}
	.st1{fill:#323232;}
</style>
<g id="Layer_1_1_" transform="translate(-1330, -20)">
	<path class="st0" d="M1370,40c0,11-9,20-20,20c-11,0-20-9-20-20s9-20,20-20C1361,20,1370,29,1370,40"/>
	<path class="st1" d="M1349.8,41.7c0.3,0,0.5,0,0.8,0c0.9,0,1.6-0.4,2-1.2c0-0.1,0-0.2,0-0.3c-0.2-0.5-0.4-1-0.6-1.5
		c0-0.1,0-0.2,0.1-0.2c0.3-0.2,0.6-0.4,0.9-0.7c0.1,0.2,0.2,0.4,0.2,0.7c0.2,0.7,0.6,1,1.3,0.9c0.5,0,0.9,0,1.4,0c0,0,0,0,0.1,0
		c0,0,0,0,0,0c-0.7-0.5-0.6-1.4-0.2-2c0.5-0.7,1.2-0.9,2-0.8c0.1,0,0.1,0,0.2,0.1c0.3,0.2,0.5,0.5,0.8,0.7c0.2,0.1,0.1,0.3,0.1,0.5
		c-0.2,0-0.5,0-0.7-0.1c-0.6,0-1.1,0-1.7,0.3c-0.1,0.1-0.2,0.2-0.4,0.3c0.2,0.4,0.6,0.6,1,0.7c0.7,0.3,1.3,0.3,2,0.2
		c0.1,0,0.3,0,0.5,0c-0.1,0.5-0.2,0.9-0.2,1.4c-0.5,0.1-1,0.1-1.5,0.2c-0.7,0.1-1.5,0.1-2.2,0.1c-0.5,0-0.9,0-1.4,0
		c-0.3,0-0.6-0.1-0.8-0.4c0,0.1,0,0.1-0.1,0.2c-0.2,0.7-0.5,1.4-1.1,2c-0.2,0.2-0.5,0.3-0.8,0.3c-0.1,0-0.2,0-0.2,0
		c-0.5-0.3-0.9-0.6-1.4-0.9C1349.8,42,1349.9,41.8,1349.8,41.7"/>
	<path class="st1" d="M1348.4,38.8c-0.1-0.3-0.1-0.5-0.2-0.8c-0.1-0.3-0.2-0.6-0.3-0.9c0-0.1-0.1-0.1,0-0.2c0.3-0.2,0.6-0.5,0.9-0.7
		c0,0,0,0,0,0c0.4,1.1,0.6,2.2,0.3,3.3c-0.1,0.4-0.3,0.6-0.7,0.7c-0.6,0.1-1.2,0.1-1.8,0.1c0,0.2-0.1,0.3-0.1,0.5
		c0,0.2-0.1,0.3-0.2,0.4c-0.6,0.5-1.2,0.7-2,0.9c-0.8,0.2-1.6,0.2-2.4,0c-0.9-0.3-1.5-1-1.6-2c-0.1-0.8,0.1-1.6,0.4-2.3
		c0,0,0.1-0.1,0.1-0.1c0.2,0,0.4,0,0.6,0c-0.1,0.3-0.1,0.5-0.2,0.8c0,0.3-0.1,0.7-0.1,1c0.1,0.7,0.5,1.2,1.2,1.3
		c1.2,0.2,2.3,0,3.3-0.6c0,0,0,0,0,0c-0.4-0.3-0.8-0.4-1.3-0.5c0.1-0.4,0.2-0.7,0.3-1.1C1346.1,38.8,1347.2,39,1348.4,38.8"/>
	<path class="st1" d="M1344.9,43.1c-0.2,0.2-0.4,0.4-0.6,0.6c-0.3-0.2-0.6-0.4-0.9-0.6c-0.2,0.2-0.4,0.4-0.6,0.6
		c-0.3-0.2-0.6-0.4-0.9-0.6c0.2-0.2,0.4-0.4,0.6-0.6c0.3,0.2,0.6,0.4,0.9,0.6c0.2-0.2,0.4-0.4,0.6-0.6
		C1344.3,42.7,1344.6,42.9,1344.9,43.1"/>
	<path class="st1" d="M1347.5,41.9c0.2-0.3,0.4-0.5,0.7-0.7c0.3,0.2,0.7,0.5,1,0.7c-0.2,0.3-0.4,0.5-0.7,0.8
		C1348.2,42.4,1347.8,42.2,1347.5,41.9"/>
</g>
</svg>
