<?xml version="1.0" encoding="utf-8"?>
<!-- Generator: Adobe Illustrator 22.0.0, SVG Export Plug-In . SVG Version: 6.00 Build 0)  -->
<svg version="1.1" id="Layer_1" xmlns="http://www.w3.org/2000/svg" xmlns:xlink="http://www.w3.org/1999/xlink" x="0px" y="0px"
	 viewBox="0 0 40 40" style="enable-background:new 0 0 40 40;" xml:space="preserve">
<style type="text/css">
	.st0{fill:#FFFFFF;}
	.st1{fill:#323232;}
</style>
<g id="Layer_1_1_" transform="translate(-1265, -20)">
	<path class="st0" d="M1305,40c0,11-9,20-20,20s-20-9-20-20s9-20,20-20S1305,29,1305,40"/>
	<path class="st1" d="M1273.5,37.3h3.1c0,0,0,0,0,0.1s0,0.1,0,0.1c0,0.1,0,0.2-0.1,0.3s-0.2,0.1-0.4,0.1h-1.9v1.6h1.8v0.6h-1.8V42h2
		c0.2,0,0.3,0,0.4,0.1s0.1,0.2,0.1,0.3c0,0,0,0,0,0.1v0.1h-3.2V37.3z"/>
	<path class="st1" d="M1277.5,38.9C1277.6,38.9,1277.6,38.9,1277.5,38.9c0.2,0,0.3,0,0.4,0.1c0.1,0.1,0.2,0.2,0.2,0.3
		c0.1-0.1,0.3-0.2,0.5-0.3s0.5-0.1,0.7-0.1c0.4,0,0.6,0.1,0.8,0.2c0.2,0.2,0.3,0.4,0.4,0.6c0,0.1,0,0.2,0,0.4c0,0.1,0,0.3,0,0.4v2.3
		h-0.7v-2.2c0-0.1,0-0.2,0-0.3s0-0.2,0-0.3s-0.1-0.2-0.2-0.3s-0.3-0.1-0.5-0.1c-0.3,0-0.5,0.1-0.7,0.2c-0.2,0.1-0.3,0.2-0.3,0.4v2.7
		h-0.7L1277.5,38.9L1277.5,38.9z"/>
	<path class="st1" d="M1284.3,42.3c0,0-0.1,0.1-0.2,0.1c-0.1,0.1-0.1,0.1-0.2,0.1s-0.2,0.1-0.3,0.1c-0.1,0-0.2,0-0.4,0
		c-0.2,0-0.4,0-0.6-0.1s-0.4-0.2-0.5-0.3c-0.1-0.2-0.3-0.4-0.3-0.6s-0.1-0.6-0.1-0.9c0-0.4,0-0.7,0.1-0.9s0.2-0.5,0.3-0.6
		c0.1-0.2,0.3-0.3,0.5-0.4c0.2-0.1,0.4-0.1,0.6-0.1c0.3,0,0.5,0,0.6,0.1c0.2,0.1,0.3,0.2,0.4,0.3c0-0.1,0.1-0.2,0.2-0.3
		s0.2-0.1,0.3-0.1h0.1c0,0,0,0,0.1,0c0,0,0,0,0.1,0v3.5c0,0.3,0,0.6-0.1,0.9c-0.1,0.3-0.2,0.5-0.3,0.6s-0.3,0.3-0.6,0.4
		c-0.2,0.1-0.5,0.1-0.9,0.1c-0.3,0-0.5,0-0.7-0.1c-0.2,0-0.3-0.1-0.5-0.2c-0.1-0.1-0.2-0.1-0.2-0.2c0-0.1-0.1-0.1-0.1-0.2
		c0-0.1,0-0.1,0.1-0.2c0.1-0.1,0.1-0.2,0.2-0.2c0,0,0,0,0.1,0.1c0.1,0,0.1,0.1,0.2,0.1c0.1,0.1,0.2,0.1,0.3,0.1
		c0.1,0,0.3,0.1,0.4,0.1c0.3,0,0.5,0,0.6-0.1s0.3-0.2,0.4-0.3s0.1-0.3,0.2-0.5S1284.3,42.6,1284.3,42.3L1284.3,42.3z M1284.3,39.8
		L1284.3,39.8L1284.3,39.8c-0.2-0.1-0.2-0.2-0.3-0.2s-0.2-0.1-0.3-0.1c-0.1,0-0.2,0-0.3,0c-0.3,0-0.5,0.1-0.7,0.3s-0.3,0.6-0.3,1
		c0,0.2,0,0.4,0,0.6c0,0.2,0.1,0.3,0.2,0.5c0.1,0.1,0.2,0.2,0.3,0.3c0.1,0.1,0.3,0.1,0.5,0.1c0.1,0,0.2,0,0.4,0s0.2-0.1,0.3-0.1
		c0.1,0,0.1-0.1,0.2-0.2c0-0.1,0.1-0.1,0.1-0.2L1284.3,39.8L1284.3,39.8z"/>
	<path class="st1" d="M1286.2,37C1286.3,37,1286.3,37,1286.2,37c0.3,0,0.4,0,0.5,0.1s0.1,0.2,0.1,0.4v4.4c0,0.1,0,0.1,0,0.2
		c0,0.1,0,0.1,0,0.1l0.1,0.1c0.1,0,0.1,0,0.2,0v0.3c0,0-0.1,0-0.2,0s-0.2,0-0.2,0c-0.2,0-0.3,0-0.4-0.1s-0.1-0.1-0.2-0.2
		c0-0.1-0.1-0.2-0.1-0.3s0-0.2,0-0.3V37H1286.2z"/>
	<path class="st1" d="M1288,37.6c0-0.1,0-0.2,0.1-0.3s0.2-0.1,0.3-0.1c0.1,0,0.2,0,0.3,0.1c0.1,0.1,0.1,0.2,0.1,0.3s0,0.2-0.1,0.3
		s-0.2,0.1-0.3,0.1c-0.1,0-0.2,0-0.3-0.1C1288,37.9,1288,37.8,1288,37.6z M1288.1,38.8C1288.2,38.8,1288.2,38.8,1288.1,38.8
		c0.3,0,0.4,0,0.5,0.1s0.1,0.2,0.1,0.4v2.5c0,0.2,0,0.3,0.1,0.3c0,0.1,0.2,0.1,0.3,0.1v0.3c0,0-0.1,0-0.2,0s-0.2,0-0.2,0
		c-0.2,0-0.3,0-0.4-0.1s-0.1-0.1-0.2-0.2c0-0.1-0.1-0.2-0.1-0.3s0-0.2,0-0.3L1288.1,38.8L1288.1,38.8z"/>
	<path class="st1" d="M1292.1,39.8c-0.1-0.1-0.2-0.2-0.4-0.3s-0.4-0.1-0.6-0.1c-0.1,0-0.1,0-0.2,0s-0.2,0-0.2,0.1s-0.1,0.1-0.2,0.1
		c0,0.1-0.1,0.1-0.1,0.2c0,0.2,0.1,0.3,0.2,0.4c0.2,0.1,0.3,0.1,0.6,0.2c0.2,0,0.3,0.1,0.5,0.1s0.3,0.1,0.4,0.2s0.2,0.2,0.3,0.3
		c0.1,0.1,0.1,0.3,0.1,0.5s0,0.4-0.1,0.5s-0.2,0.3-0.3,0.4s-0.3,0.2-0.5,0.2s-0.4,0.1-0.6,0.1s-0.4,0-0.5,0s-0.3-0.1-0.4-0.1
		c-0.1-0.1-0.2-0.1-0.3-0.2c-0.1-0.1-0.1-0.1-0.1-0.2c0-0.1,0-0.1,0.1-0.2c0-0.1,0.1-0.2,0.1-0.3c0,0,0.1,0.1,0.2,0.1
		s0.1,0.1,0.2,0.1s0.2,0.1,0.3,0.1c0.1,0,0.2,0,0.4,0c0.1,0,0.2,0,0.3,0c0.1,0,0.2,0,0.2-0.1c0.1,0,0.1-0.1,0.2-0.2s0.1-0.2,0.1-0.3
		s0-0.2-0.1-0.3c0-0.1-0.1-0.1-0.2-0.2c-0.1,0-0.2-0.1-0.3-0.1c-0.1,0-0.2-0.1-0.3-0.1c-0.2,0-0.3-0.1-0.4-0.1
		c-0.1-0.1-0.3-0.1-0.4-0.2s-0.2-0.2-0.3-0.3c-0.1-0.1-0.1-0.3-0.1-0.5s0-0.3,0.1-0.5c0.1-0.1,0.2-0.2,0.3-0.3
		c0.1-0.1,0.3-0.2,0.4-0.2c0.2,0,0.3-0.1,0.5-0.1s0.4,0,0.6,0.1s0.3,0.1,0.4,0.2c0.1,0.1,0.2,0.1,0.2,0.2c0,0.1,0.1,0.1,0.1,0.1
		c0,0.1,0,0.1,0,0.2c0,0.1-0.1,0.2-0.1,0.2L1292.1,39.8z"/>
	<path class="st1" d="M1293.4,37C1293.5,37,1293.5,37,1293.4,37c0.3,0,0.4,0,0.5,0.1s0.1,0.2,0.1,0.4v1.8c0.1-0.2,0.3-0.3,0.5-0.4
		s0.4-0.1,0.7-0.1c0.2,0,0.4,0,0.5,0.1c0.1,0,0.3,0.1,0.4,0.2c0.1,0.1,0.2,0.2,0.2,0.3c0.1,0.1,0.1,0.2,0.1,0.3s0,0.2,0,0.4
		c0,0.1,0,0.3,0,0.4v2.3h-0.7v-2.2c0-0.1,0-0.2,0-0.3s0-0.2,0-0.3s-0.1-0.2-0.2-0.3s-0.3-0.1-0.5-0.1c-0.1,0-0.3,0-0.4,0.1
		c-0.1,0-0.2,0.1-0.3,0.1c-0.1,0.1-0.2,0.1-0.2,0.2c0,0.1-0.1,0.1-0.1,0.2v2.7h-0.7L1293.4,37L1293.4,37z"/>
</g>
</svg>
