<?xml version="1.0" encoding="utf-8"?>
<!-- Generator: Adobe Illustrator 22.0.0, SVG Export Plug-In . SVG Version: 6.00 Build 0)  -->
<svg version="1.1" id="Layer_1" xmlns="http://www.w3.org/2000/svg" xmlns:xlink="http://www.w3.org/1999/xlink" x="0px" y="0px"
	 viewBox="0 0 15 15" style="enable-background:new 0 0 15 15;" xml:space="preserve">
<style type="text/css">
	.st0{fill:#FFFFFF;stroke:#FFFFFF;stroke-width:0.5;stroke-miterlimit:10;}
	.st1{fill:#FFFFFF;stroke:#FFFFFF;stroke-width:0.1;stroke-miterlimit:10;}
</style>
<g>
	<path class="st0" d="M2.5,14.6h10c1.1,0,2.1-0.9,2.1-2.1v-10c0-1.1-0.9-2.1-2.1-2.1h-10c-1.1,0-2.1,0.9-2.1,2.1v10
		C0.4,13.7,1.3,14.6,2.5,14.6z M1.2,2.5c0-0.7,0.6-1.2,1.2-1.2h10c0.7,0,1.2,0.6,1.2,1.2v10c0,0.7-0.6,1.2-1.2,1.2h-10
		c-0.7,0-1.2-0.6-1.2-1.2V2.5z"/>
	<path class="st0" d="M7.5,11.2c2.1,0,3.7-1.7,3.7-3.7S9.6,3.8,7.5,3.8S3.8,5.4,3.8,7.5S5.4,11.2,7.5,11.2z M7.5,4.6
		c1.6,0,2.9,1.3,2.9,2.9s-1.3,2.9-2.9,2.9S4.6,9.1,4.6,7.5S5.9,4.6,7.5,4.6z"/>
	<path class="st1" d="M11.7,4.6c0.7,0,1.2-0.6,1.2-1.2s-0.6-1.2-1.2-1.2s-1.2,0.6-1.2,1.2S11,4.6,11.7,4.6z M11.7,2.9
		c0.2,0,0.4,0.2,0.4,0.4s-0.2,0.4-0.4,0.4s-0.4-0.2-0.4-0.4S11.4,2.9,11.7,2.9z"/>
</g>
</svg>
