<?xml version="1.0" encoding="utf-8"?>
<!-- Generator: Adobe Illustrator 22.0.0, SVG Export Plug-In . SVG Version: 6.00 Build 0)  -->
<svg version="1.1" id="Layer_1" xmlns="http://www.w3.org/2000/svg" xmlns:xlink="http://www.w3.org/1999/xlink" x="0px" y="0px"
	 viewBox="0 0 15 15" style="enable-background:new 0 0 15 15;" xml:space="preserve">
<style type="text/css">
	.st0{fill:#FFFFFF;}
</style>
<g id="Layer_1_1_" transform="translate(-1231.843, -32.229)">
	<path class="st0" d="M1244.2,44.5v-3.6c0-1.9-1-2.8-2.4-2.8c-1.1,0-1.6,0.6-1.9,1.1h0v-0.9h-2.1c0,0,0,0.6,0,6.3h2.1v-3.5
		c0-0.2,0-0.4,0.1-0.5c0.2-0.4,0.5-0.8,1.1-0.8c0.8,0,1.1,0.6,1.1,1.4v3.4H1244.2z M1236.6,38.1h-2.1v6.3h2.1V38.1z M1235.6,35.1
		c-0.7,0-1.2,0.5-1.2,1.1c0,0.6,0.5,1.1,1.2,1.1h0c0.7,0,1.2-0.5,1.2-1.1C1236.7,35.6,1236.3,35.1,1235.6,35.1 M1246.3,44.1
		c0,1.4-1.2,2.6-2.6,2.6h-8.8c-1.4,0-2.6-1.2-2.6-2.6v-8.8c0-1.4,1.2-2.6,2.6-2.6h8.8c1.4,0,2.6,1.2,2.6,2.6V44.1z"/>
</g>
</svg>
